<?xml version="1.0" standalone="no"?>
<!DOCTYPE svg PUBLIC "-//W3C//DTD SVG 20010904//EN"
 "http://www.w3.org/TR/2001/REC-SVG-20010904/DTD/svg10.dtd">
<svg version="1.0" xmlns="http://www.w3.org/2000/svg"
 width="700.000000pt" height="700.000000pt" viewBox="0 0 700.000000 700.000000"
 preserveAspectRatio="xMidYMid meet">
<metadata>
Created by potrace 1.11, written by Peter Selinger 2001-2013
</metadata>
<g transform="translate(0.000000,700.000000) scale(0.100000,-0.100000)"
fill="#000000" stroke="none">
<path d="M760 5673 c-62 -32 -70 -62 -70 -276 0 -267 11 -284 190 -297 209
-14 298 -101 475 -465 46 -93 453 -975 905 -1960 452 -984 833 -1805 847
-1824 44 -58 62 -61 368 -61 295 0 318 3 362 51 12 13 400 847 863 1854 463
1007 871 1886 906 1955 120 238 219 362 330 416 52 25 74 30 176 34 111 5 118
7 155 36 69 56 74 74 71 284 -3 208 -9 229 -73 256 -53 22 -1912 21 -1959 -1
-61 -29 -66 -50 -66 -277 0 -293 -3 -289 261 -298 166 -5 177 -6 212 -30 21
-14 47 -45 58 -68 43 -88 13 -267 -90 -535 -47 -123 -938 -2178 -949 -2189 -9
-9 -913 1901 -988 2087 -73 178 -104 293 -111 401 -14 227 64 315 296 334 123
10 158 25 180 78 9 20 11 92 9 235 l-3 207 -33 32 -32 33 -1128 3 c-1058 2
-1129 1 -1162 -15z"/>
</g>
</svg>
