<svg version="1" xmlns="http://www.w3.org/2000/svg" width="933.333" height="933.333" viewBox="0 0 700.000000 700.000000"><path d="M145.7 119.6c-.1.1-3.3.5-7.2.8-9.2.9-19.1 2.4-24 3.7-2.2.6-4.7 1.2-5.5 1.4-5.4 1-19.2 6.5-29.5 11.5-27 13.4-46.6 33-60.4 60.5-4.8 9.7-10.5 25.3-11.6 31.8-.3 1.8-.8 3.9-1 4.7-.5 1.7-1.1 5.1-2.2 12.5C2.7 257 3.7 308 5.5 311c.2.3.6 2.3.9 4.5.4 2.2 1.8 8 3.1 13 6.7 24.5 16.5 41.6 33.4 58.6 26.3 26.2 59.9 38.7 105.6 39.1 33.7.4 64.5-10.8 87-31.6 3.3-3 6.3-5.6 6.8-5.6.4 0 .5 1 .3 2.2-.3 1.3-.8 6.2-1.1 11-.5 9.4-.8 11.9-3 24.8-2.4 13.8-2.4 14-6.2 25-3.2 9.5-8.6 21.7-10.2 23-.3.3-2.3 3-4.4 6.1-7.2 10.7-17.7 18.4-31.4 22.8-23.6 7.7-49.8 5.7-66.3-4.9-6.8-4.4-17.9-16.5-21.9-23.9-1.9-3.7-3.9-6.1-4.9-6.2H20.7l-4.8.1.7 3.7c1.1 6.5 8.1 26.7 11.7 34 8.2 16.2 24.3 36.1 37.4 46.1 14.9 11.5 37.2 21.3 57.3 25.1 15.4 2.9 43.9 3.2 59.5.6 1.7-.3 4.4-.7 6-1 21.3-3.6 43.9-13.1 59.7-25.2 36.2-27.6 59.6-79.1 66.4-145.8.3-3.3.7-7.1 1-8.5 2.4-15.1 2.4-111.2 0-123.6-.2-1.1-.7-4.6-1-7.7-2-18.9-9.1-44.6-17.2-62.3-16.5-36.3-44-62.3-79.4-75-7.9-2.8-19.7-5.9-26.5-7-2.7-.4-5.6-.8-6.4-1-5.5-1.1-38.5-2.5-39.4-1.8zm30.3 73.3c7.9 1.4 18 4.6 23.1 7.2 20 10.1 32.9 29 36.6 53.4.9 6.4.9 30.1 0 38.3-.9 7-4.7 19.8-7.7 25.2-1 1.9-2.3 4.5-2.9 5.6-1.7 3.7-13 15.1-18.7 18.9-15 10-38.2 14.8-59.4 12.3-30.6-3.5-52.2-22-60.2-51.6-2.7-10.1-3.4-40.5-1.2-52.5 6-32.9 29.5-54.6 62.9-58 5.9-.5 21.1.1 27.5 1.2zM524.8 119.6c-.2.1-3.7.5-7.8.8-17.3 1.3-38.1 5.8-49.5 10.5-18.4 7.8-30.5 16-44.1 29.7-23.5 23.6-37.6 59.5-37.9 96.2v6.4h39.8c21.9 0 40-.2 40.2-.4.2-.2.6-2.3 1-4.8 3.1-22.8 9.1-37.4 19.8-48.2 12.5-12.8 27.1-18.1 49.2-18.1 28.4-.1 45.5 6.8 58.7 23.3 4.4 5.5 6 8.6 8.8 17 2.7 8.3 3.4 24 1.4 33.5-4 19-19.8 35.4-39.4 40.8-9.9 2.8-14.1 3-48.5 3.3-18.7.1-34.3.2-34.6.3-.8.1-.8 67.1 0 67.2.3.1 15.2.3 33.1.4 17.9.1 35.7.5 39.6.9 30.4 2.8 52.2 20 58.9 46.5 1.7 6.6 2.3 19.1 1.2 27.6-.9 7.4-6.3 23.5-7.9 23.5-.4 0-.8.6-.8 1.2 0 3-12 15.2-19.4 19.7-3.1 1.8-9.3 4.6-13.8 6.1-7.7 2.6-10 3.2-19.8 4.7-1.9.3-8.7.6-15 .7-43.9.8-70.5-18.4-78.5-56.6-1.6-7.2-2.8-17.6-2.9-24-.1-3.1-.5-3.8-2.1-3.9-9.9-.4-77.6 0-78.3.5-1.6 1 .2 23.6 2.8 37.1 2.5 12.7 3.2 15.3 6.1 23.8 16 46.9 50.1 77.5 99.7 89.6 4.6 1.1 10.4 2.3 13 2.7 2.6.3 5.8.7 7.2 1 14.2 2.3 51 2.2 65.5-.1 6-1 9.1-1.5 13-2.1 12.9-1.9 36.5-10 48.3-16.5 4.6-2.6 13.5-8.1 14.2-8.9.3-.3 1.7-1.3 3.1-2.2 4.8-3 15.1-13.2 21-20.5 22.4-28.1 31.6-71 23.3-108.2-2-9.1-1.9-8.8-4.8-16.5-9-23.9-25.4-42.8-48.8-56.3l-8.1-4.6 3-1.6c16.3-8.9 31.6-24.8 40.2-41.9 3.6-7.1 8.7-21.9 9.6-27.9.3-2.1.8-5 1.1-6.3.9-4.1 1.2-28.2.4-34-.5-3-1.1-7.5-1.4-10-1.2-8.3-5.7-22.4-10.1-31.7-18.6-39.5-61.2-64.6-117-68.9-7.7-.6-32.3-1.2-32.7-.8z"/></svg>